<?xml version="1.0" encoding="UTF-8" standalone="no"?>
<!-- Created with Inkscape (http://www.inkscape.org/) -->

<svg
   xmlns:dc="http://purl.org/dc/elements/1.1/"
   xmlns:cc="http://creativecommons.org/ns#"
   xmlns:rdf="http://www.w3.org/1999/02/22-rdf-syntax-ns#"
   xmlns:svg="http://www.w3.org/2000/svg"
   xmlns="http://www.w3.org/2000/svg"
   xmlns:sodipodi="http://sodipodi.sourceforge.net/DTD/sodipodi-0.dtd"
   xmlns:inkscape="http://www.inkscape.org/namespaces/inkscape"
   version="1.1"
   id="svg6056"
   width="377"
   height="377"
   viewBox="0 0 377 377"
   sodipodi:docname="favicon.svg"
   inkscape:version="0.92.4 (5da689c313, 2019-01-14)">
  <metadata
     id="metadata6062">
    <rdf:RDF>
      <cc:Work
         rdf:about="">
        <dc:format>image/svg+xml</dc:format>
        <dc:type
           rdf:resource="http://purl.org/dc/dcmitype/StillImage" />
        <dc:title></dc:title>
      </cc:Work>
    </rdf:RDF>
  </metadata>
  <defs
     id="defs6060">
    <clipPath
       clipPathUnits="userSpaceOnUse"
       id="clipPath6620">
      <g
         style="fill:#00000e;fill-opacity:1;stroke:#000001;stroke-width:0.1;stroke-miterlimit:4;stroke-dasharray:none;stroke-opacity:1"
         id="use6622"
         inkscape:label="Clip">
        <path
           style="fill:#00000e;fill-opacity:1;stroke:#000001;stroke-width:0.1;stroke-linecap:butt;stroke-linejoin:miter;stroke-miterlimit:4;stroke-dasharray:none;stroke-opacity:1"
           d="m 92.496094,95.996094 92.508236,92.508236 -92.5,92.5 3.491764,3.49176 92.492186,-92.49218 92.51179,92.51179 3.52202,-3.52202 -92.5205,-92.5205 92.48775,-92.48775 -3.49325,-3.493243 L 188.49023,184.99805 96,92.507812 Z"
           id="path6727"
           inkscape:connector-curvature="0" />
      </g>
    </clipPath>
  </defs>
  <sodipodi:namedview
     pagecolor="#ffffff"
     bordercolor="#666666"
     borderopacity="1"
     objecttolerance="10"
     gridtolerance="10"
     guidetolerance="10"
     inkscape:pageopacity="0"
     inkscape:pageshadow="2"
     inkscape:window-width="1920"
     inkscape:window-height="1017"
     id="namedview6058"
     showgrid="false"
     inkscape:zoom="1.4142136"
     inkscape:cx="49.513832"
     inkscape:cy="189.66603"
     inkscape:window-x="-8"
     inkscape:window-y="-8"
     inkscape:window-maximized="1"
     inkscape:current-layer="svg6056" />
  <path
     style="fill:#1f396b;fill-opacity:1;stroke:none;stroke-width:0.99893671px;stroke-linecap:butt;stroke-linejoin:miter;stroke-opacity:1"
     d="M 0.15088835,188.54956 188.45044,0.24999861 376.75391,188.55347 188.45395,376.85342 Z"
     id="path6068"
     inkscape:connector-curvature="0"
     inkscape:export-xdpi="96"
     inkscape:export-ydpi="96" />
  <path
     style="fill:#ffffff;fill-opacity:1;stroke:none;stroke-width:0;stroke-miterlimit:4;stroke-dasharray:none;stroke-opacity:1"
     d="M 174.99219 58.007812 A 11.004496 10.996094 0 0 0 164.17773 67 L 161.00586 67 L 161.00781 67.003906 L 161 67.003906 L 149.5 78.503906 L 124 104.00195 L 116 112 L 96.25 92.25 L 92.25 96.25 L 184.5 188.5 L 92.248047 280.74805 L 96.251953 284.75195 L 188.5 192.5 L 280.75391 284.75391 L 284.75 280.75781 L 192.5 188.50391 L 284.75195 96.251953 L 280.74805 92.248047 L 188.5 184.50391 L 137.00195 133.00195 L 162.00195 108 L 163.18359 108 A 11.004496 10.996094 0 0 0 173.99609 116.99219 A 11.004496 10.996094 0 0 0 185 105.99609 A 11.004496 10.996094 0 0 0 173.99609 95 A 11.004496 10.996094 0 0 0 163.17969 104.00195 L 162 104.00195 L 160 104.00195 L 134 130.00195 L 129 125 L 128.50195 124.50195 L 161.00391 92 L 207.19336 92 A 11.004496 10.996094 0 0 0 218.00391 100.98438 A 11.004496 10.996094 0 0 0 229.00781 89.988281 A 11.004496 10.996094 0 0 0 218.00391 78.992188 A 11.004496 10.996094 0 0 0 207.18555 88.003906 L 161 88.003906 L 159 88.003906 L 125.50195 121.50195 L 119.00195 115.00195 L 130.00195 104.00195 L 151.50391 82.5 L 163.00391 71 L 163.00391 70.998047 L 164.17773 70.998047 A 11.004496 10.996094 0 0 0 174.99219 80 A 11.004496 10.996094 0 0 0 185.99609 69.003906 A 11.004496 10.996094 0 0 0 174.99219 58.007812 z M 174.99219 62.529297 C 178.38802 62.529481 181.47461 65.616094 181.47461 69.003906 C 181.47461 72.391718 178.38802 75.478332 174.99219 75.478516 C 171.59636 75.478336 168.50977 72.391721 168.50977 69.003906 C 168.50977 65.616091 171.59636 62.529478 174.99219 62.529297 z M 218.00391 83.513672 C 221.39974 83.513856 224.48633 86.600468 224.48633 89.988281 C 224.48633 93.376093 221.39974 96.462707 218.00391 96.462891 C 214.60808 96.46271 211.52148 93.376095 211.52148 89.988281 C 211.52148 86.600466 214.60808 83.513853 218.00391 83.513672 z M 173.99609 99.521484 C 177.39192 99.521668 180.47852 102.60828 180.47852 105.99609 C 180.47852 109.38391 177.39192 112.47052 173.99609 112.4707 C 170.60026 112.47052 167.51367 109.38391 167.51367 105.99609 C 167.51367 102.60828 170.60026 99.521665 173.99609 99.521484 z M 274.69531 149.15625 L 272.30469 149.93945 L 269.91797 150.71289 L 270.31641 158.31836 C 270.2286 158.36306 270.14396 158.41342 270.05664 158.45898 C 270.05406 158.46033 270.05141 158.46154 270.04883 158.46289 C 268.41739 159.23017 266.84985 160.14312 265.375 161.21484 C 263.89788 162.28825 262.54468 163.49907 261.31055 164.81641 C 261.25467 164.87131 261.19607 164.92314 261.14062 164.97852 L 254.02344 162.24609 L 252.54883 164.2832 L 251.07422 166.3125 L 255.86719 172.23047 C 255.83409 172.29539 255.80605 172.36258 255.77344 172.42773 C 254.88738 174.02757 254.14175 175.70918 253.57031 177.46875 C 253.0394 179.10362 252.67137 180.77257 252.44141 182.45703 C 252.40835 182.6421 252.36934 182.82594 252.33984 183.01172 L 244.99609 184.98047 L 245 187.49609 L 245 190.00391 L 245.00195 190.00391 L 252.33789 191.96875 C 252.3821 192.24859 252.43791 192.52653 252.49023 192.80469 C 252.52008 193.01032 252.55775 193.21479 252.5918 193.41992 C 252.61207 193.54238 252.63053 193.66485 252.65234 193.78711 C 252.7033 194.07224 252.7609 194.35674 252.82031 194.64062 C 252.85106 194.78767 252.87904 194.93536 252.91211 195.08203 C 252.97949 195.38071 253.05563 195.67765 253.13281 195.97461 C 253.16188 196.08648 253.18826 196.19895 253.21875 196.31055 C 253.33187 196.72451 253.45283 197.13698 253.58594 197.54688 C 253.71181 197.93447 253.84563 198.31738 253.98828 198.69727 C 254.43078 199.88225 254.95162 201.02951 255.54102 202.13867 C 255.63986 202.34958 255.73603 202.5618 255.8418 202.76953 L 251.05859 208.67969 L 252.54102 210.71094 L 254.01562 212.74023 L 261.10547 210.01562 C 261.24265 210.1529 261.38752 210.28159 261.52734 210.41602 C 262.70729 211.65025 263.99604 212.78594 265.39258 213.80078 C 266.79433 214.81939 268.27824 215.69718 269.82227 216.43945 C 269.97702 216.52186 270.12889 216.60978 270.28516 216.68945 L 269.88867 224.2832 L 272.2832 225.05664 L 274.66797 225.83008 L 278.80273 219.45898 C 278.98386 219.48772 279.166 219.50718 279.34766 219.53125 C 280.61573 219.76278 281.90054 219.91253 283.19727 219.97266 C 283.5161 219.98744 283.83615 219.99216 284.15625 219.99609 C 284.27097 219.9975 284.38513 220.00391 284.5 220.00391 C 284.58224 220.00385 284.66393 219.99883 284.74609 219.99805 C 286.39188 219.98228 288.0223 219.82538 289.625 219.5332 C 289.80917 219.50756 289.99397 219.48813 290.17773 219.45898 L 294.3125 225.83008 L 296.69727 225.05664 L 299.0918 224.2832 L 298.69531 216.68945 C 298.85158 216.60978 299.00347 216.52186 299.1582 216.43945 C 300.70222 215.69718 302.18613 214.81939 303.58789 213.80078 C 304.98442 212.78594 306.27319 211.65025 307.45312 210.41602 C 307.59295 210.28159 307.73781 210.15291 307.875 210.01562 L 314.96484 212.74023 L 316.43945 210.71094 L 317.92188 208.67969 L 313.13867 202.76953 C 313.24747 202.55584 313.34576 202.3372 313.44922 202.12109 C 314.22345 200.6617 314.87864 199.13541 315.39453 197.54688 C 315.87651 196.06271 316.21731 194.54816 316.44922 193.02148 C 316.51775 192.67168 316.58688 192.32125 316.64258 191.96875 L 320.64062 190.89844 L 323.97852 190.00391 L 323.98047 190.00391 L 323.98047 187.49609 L 323.98438 184.98047 L 316.64062 183.01172 C 316.61113 182.82594 316.5721 182.6421 316.53906 182.45703 C 316.53229 182.40741 316.52264 182.35818 316.51562 182.30859 C 316.46517 181.95185 316.41123 181.59532 316.34766 181.24023 C 316.33524 181.17043 316.31956 181.10098 316.30664 181.03125 C 316.24252 180.68754 316.17631 180.34375 316.09961 180.00195 C 316.06497 179.84638 316.02361 179.69223 315.98633 179.53711 C 315.92052 179.26525 315.8572 178.99303 315.7832 178.72266 C 315.78125 178.71551 315.77931 178.70832 315.77734 178.70117 C 315.66459 178.28848 315.54288 177.87747 315.41016 177.46875 C 315.26746 177.02935 315.11261 176.59596 314.94922 176.16602 C 314.94776 176.16217 314.94678 176.15814 314.94531 176.1543 C 314.93552 176.12862 314.92392 176.10377 314.91406 176.07812 C 314.76518 175.69028 314.60854 175.30563 314.44336 174.92578 C 314.40186 174.83057 314.35695 174.73727 314.31445 174.64258 C 314.16823 174.31605 314.01727 173.99221 313.85938 173.67188 C 313.82738 173.60708 313.79417 173.54306 313.76172 173.47852 C 313.59191 173.14043 313.41686 172.80552 313.23438 172.47461 C 313.21877 172.44631 313.20514 172.41692 313.18945 172.38867 C 313.16316 172.33633 313.13989 172.28266 313.11328 172.23047 L 317.90625 166.3125 L 316.43164 164.2832 L 314.95703 162.24609 L 307.83984 164.97852 C 307.7844 164.92314 307.7258 164.87131 307.66992 164.81641 C 306.43579 163.49907 305.08259 162.28825 303.60547 161.21484 C 302.12824 160.14139 300.55811 159.22703 298.92383 158.45898 C 298.83651 158.41342 298.75186 158.36306 298.66406 158.31836 L 299.0625 150.71289 L 296.67578 149.93945 L 294.28516 149.15625 L 290.13477 155.55273 C 290.05498 155.54015 289.97463 155.53176 289.89453 155.52148 C 288.12518 155.18309 286.3218 155.00001 284.5 155 L 284.48047 155 C 284.03759 155 283.59675 155.01206 283.15625 155.0332 C 281.78551 155.099 280.42638 155.26364 279.08789 155.51953 C 279.08526 155.52003 279.08271 155.52098 279.08008 155.52148 C 279.00213 155.53313 278.92358 155.54046 278.8457 155.55273 L 274.69531 149.15625 z M 116 151.99609 L 111 156.99609 L 111 157.99609 L 116.99219 157.99609 L 117.00391 184.99609 L 123.00391 184.99609 L 123 151.99609 L 116 151.99609 z M 71 152 C 64.905696 152 60 157.3517 60 164 L 60 172.99023 C 60 179.63854 64.905696 184.99219 71 184.99219 C 77.0943 184.99219 82.001953 179.63854 82.001953 172.99023 L 82.001953 164 C 82.001953 157.3517 77.0943 152 71 152 z M 92 152 L 87 157 L 87 158 L 92.992188 158 L 93.003906 185 L 99.003906 185 L 99 152 L 92 152 z M 71 157.09766 C 74.10762 157.09766 76.904297 159.8385 76.904297 164 L 76.904297 172.99023 C 76.904297 177.15167 74.106335 179.89453 71 179.89453 C 67.893555 179.89453 65.097656 177.15278 65.097656 172.99023 L 65.097656 164 C 65.097656 159.83739 67.892271 157.09766 71 157.09766 z M 284.48633 168.03516 A 19.496218 19.496218 0 0 1 284.92383 168.03906 A 19.496218 19.496218 0 0 1 284.93945 168.03906 A 19.496218 19.496218 0 0 1 285.45117 168.05859 A 19.496218 19.496218 0 0 1 286.01172 168.09375 A 19.496218 19.496218 0 0 1 286.50391 168.14062 A 19.496218 19.496218 0 0 1 286.88281 168.18164 A 19.496218 19.496218 0 0 1 287.28711 168.23633 A 19.496218 19.496218 0 0 1 287.94531 168.3457 A 19.496218 19.496218 0 0 1 288.68555 168.49023 A 19.496218 19.496218 0 0 1 288.87305 168.5332 A 19.496218 19.496218 0 0 1 289.09766 168.58594 A 19.496218 19.496218 0 0 1 289.11719 168.5918 A 19.496218 19.496218 0 0 1 289.83398 168.78516 A 19.496218 19.496218 0 0 1 290.53906 168.99609 A 19.496218 19.496218 0 0 1 290.74805 169.06445 A 19.496218 19.496218 0 0 1 290.78125 169.07617 A 19.496218 19.496218 0 0 1 291.05664 169.17188 A 19.496218 19.496218 0 0 1 291.34375 169.27344 A 19.496218 19.496218 0 0 1 292.31445 169.67578 A 19.496218 19.496218 0 0 1 293.17969 170.07812 A 19.496218 19.496218 0 0 1 294.07227 170.55664 A 19.496218 19.496218 0 0 1 294.87891 171.03516 A 19.496218 19.496218 0 0 1 295.70898 171.59375 A 19.496218 19.496218 0 0 1 296.46289 172.14648 A 19.496218 19.496218 0 0 1 297.2207 172.77734 A 19.496218 19.496218 0 0 1 297.25977 172.80859 A 19.496218 19.496218 0 0 1 297.32812 172.87109 A 19.496218 19.496218 0 0 1 297.9375 173.42188 A 19.496218 19.496218 0 0 1 298.59766 174.08984 A 19.496218 19.496218 0 0 1 298.72266 174.22461 A 19.496218 19.496218 0 0 1 299.29297 174.85352 A 19.496218 19.496218 0 0 1 299.87305 175.57617 A 19.496218 19.496218 0 0 1 299.90234 175.61133 A 19.496218 19.496218 0 0 1 299.96484 175.69531 A 19.496218 19.496218 0 0 1 300.56055 176.50195 A 19.496218 19.496218 0 0 1 300.72656 176.74805 A 19.496218 19.496218 0 0 1 301.12109 177.39258 A 19.496218 19.496218 0 0 1 301.36133 177.79492 A 19.496218 19.496218 0 0 1 301.7793 178.54883 A 19.496218 19.496218 0 0 1 302.05078 179.10938 A 19.496218 19.496218 0 0 1 302.25391 179.54492 A 19.496218 19.496218 0 0 1 302.58594 180.31641 A 19.496218 19.496218 0 0 1 302.78906 180.875 A 19.496218 19.496218 0 0 1 302.96289 181.37109 A 19.496218 19.496218 0 0 1 303.20703 182.13477 A 19.496218 19.496218 0 0 1 303.38281 182.83008 A 19.496218 19.496218 0 0 1 303.48242 183.23828 A 19.496218 19.496218 0 0 1 303.64648 184.01758 A 19.496218 19.496218 0 0 1 303.76562 184.80469 A 19.496218 19.496218 0 0 1 303.80859 185.12305 A 19.496218 19.496218 0 0 1 303.89844 185.96289 A 19.496218 19.496218 0 0 1 303.94141 186.79492 A 19.496218 19.496218 0 0 1 303.95117 187.06641 A 19.496218 19.496218 0 0 1 303.95898 188.00977 A 19.496218 19.496218 0 0 1 303.95508 188.13281 A 19.496218 19.496218 0 0 1 303.89648 189.03711 A 19.496218 19.496218 0 0 1 303.85352 189.49023 A 19.496218 19.496218 0 0 1 303.75586 190.29883 A 19.496218 19.496218 0 0 1 303.64453 190.9707 A 19.496218 19.496218 0 0 1 303.55664 191.42383 A 19.496218 19.496218 0 0 1 303.37305 192.23828 A 19.496218 19.496218 0 0 1 303.20508 192.85938 A 19.496218 19.496218 0 0 1 303.08008 193.27734 A 19.496218 19.496218 0 0 1 302.71875 194.36719 A 19.496218 19.496218 0 0 1 302.42188 195.08008 A 19.496218 19.496218 0 0 1 302.08398 195.83594 A 19.496218 19.496218 0 0 1 301.91211 196.20508 A 19.496218 19.496218 0 0 1 301.56641 196.84766 A 19.496218 19.496218 0 0 1 301.1543 197.56641 A 19.496218 19.496218 0 0 1 300.95508 197.9043 A 19.496218 19.496218 0 0 1 300.54688 198.50977 A 19.496218 19.496218 0 0 1 300.05273 199.19922 A 19.496218 19.496218 0 0 1 299.83008 199.50391 A 19.496218 19.496218 0 0 1 299.41797 200.00195 A 19.496218 19.496218 0 0 1 298.74414 200.76758 A 19.496218 19.496218 0 0 1 298.56445 200.9668 A 19.496218 19.496218 0 0 1 298.09961 201.42578 A 19.496218 19.496218 0 0 1 297.36719 202.11133 A 19.496218 19.496218 0 0 1 297.1543 202.30273 A 19.496218 19.496218 0 0 1 297.13086 202.32227 A 19.496218 19.496218 0 0 1 296.63672 202.7207 A 19.496218 19.496218 0 0 1 295.82812 203.33398 A 19.496218 19.496218 0 0 1 295.5625 203.5293 A 19.496218 19.496218 0 0 1 295.49805 203.57617 A 19.496218 19.496218 0 0 1 295.32812 203.68945 A 19.496218 19.496218 0 0 1 294.27539 204.33594 A 19.496218 19.496218 0 0 1 294.1582 204.40625 A 19.496218 19.496218 0 0 1 293.53906 204.75 A 19.496218 19.496218 0 0 1 292.46094 205.27148 A 19.496218 19.496218 0 0 1 292.43555 205.2832 A 19.496218 19.496218 0 0 1 291.77539 205.56641 A 19.496218 19.496218 0 0 1 290.6875 205.96484 A 19.496218 19.496218 0 0 1 290.55273 206.00977 A 19.496218 19.496218 0 0 1 289.98633 206.18945 A 19.496218 19.496218 0 0 1 289.93555 206.20508 A 19.496218 19.496218 0 0 1 288.86133 206.48047 A 19.496218 19.496218 0 0 1 288.44727 206.57227 A 19.496218 19.496218 0 0 1 288.21484 206.62109 A 19.496218 19.496218 0 0 1 288 206.66406 A 19.496218 19.496218 0 0 1 287 206.81445 A 19.496218 19.496218 0 0 1 286.5957 206.86328 A 19.496218 19.496218 0 0 1 286.16016 206.91016 A 19.496218 19.496218 0 0 1 286.07812 206.91797 A 19.496218 19.496218 0 0 1 284.92383 206.97656 A 19.496218 19.496218 0 0 1 284.90625 206.97656 A 19.496218 19.496218 0 0 1 284.52734 206.98047 A 19.496218 19.496218 0 0 1 284.07422 206.97656 A 19.496218 19.496218 0 0 1 284.05664 206.97656 A 19.496218 19.496218 0 0 1 282.90234 206.91797 A 19.496218 19.496218 0 0 1 282.87891 206.91602 A 19.496218 19.496218 0 0 1 282.82031 206.91016 A 19.496218 19.496218 0 0 1 282.39062 206.86328 A 19.496218 19.496218 0 0 1 281.9707 206.8125 A 19.496218 19.496218 0 0 1 280.98047 206.66406 A 19.496218 19.496218 0 0 1 280.76562 206.62109 A 19.496218 19.496218 0 0 1 280.54102 206.57422 A 19.496218 19.496218 0 0 1 280.0957 206.47461 A 19.496218 19.496218 0 0 1 279.04492 206.20508 A 19.496218 19.496218 0 0 1 279.03125 206.20117 A 19.496218 19.496218 0 0 1 278.99414 206.18945 A 19.496218 19.496218 0 0 1 278.38477 205.99609 A 19.496218 19.496218 0 0 1 278.36133 205.98828 A 19.496218 19.496218 0 0 1 278.34375 205.98242 A 19.496218 19.496218 0 0 1 278.30273 205.96875 A 19.496218 19.496218 0 0 1 278.29297 205.96484 A 19.496218 19.496218 0 0 1 277.20508 205.56641 A 19.496218 19.496218 0 0 1 276.60156 205.30859 A 19.496218 19.496218 0 0 1 276.57031 205.29492 A 19.496218 19.496218 0 0 1 276.54492 205.2832 A 19.496218 19.496218 0 0 1 276.51953 205.27148 A 19.496218 19.496218 0 0 1 276.46484 205.24414 A 19.496218 19.496218 0 0 1 275.44141 204.75 A 19.496218 19.496218 0 0 1 274.82227 204.40625 A 19.496218 19.496218 0 0 1 274.70508 204.33594 A 19.496218 19.496218 0 0 1 273.64648 203.6875 A 19.496218 19.496218 0 0 1 273.48242 203.57617 A 19.496218 19.496218 0 0 1 273.43164 203.54102 A 19.496218 19.496218 0 0 1 273.15234 203.33398 A 19.496218 19.496218 0 0 1 272.34375 202.7207 A 19.496218 19.496218 0 0 1 271.86133 202.33203 A 19.496218 19.496218 0 0 1 271.84766 202.32031 A 19.496218 19.496218 0 0 1 271.84375 202.31836 A 19.496218 19.496218 0 0 1 271.53516 202.03711 A 19.496218 19.496218 0 0 1 270.88086 201.42578 A 19.496218 19.496218 0 0 1 270.41602 200.9668 A 19.496218 19.496218 0 0 1 270.23633 200.76758 A 19.496218 19.496218 0 0 1 269.5625 200.00195 A 19.496218 19.496218 0 0 1 269.15625 199.51172 A 19.496218 19.496218 0 0 1 269.15039 199.50391 A 19.496218 19.496218 0 0 1 269.07031 199.39453 A 19.496218 19.496218 0 0 1 268.92773 199.19922 A 19.496218 19.496218 0 0 1 268.43359 198.50977 A 19.496218 19.496218 0 0 1 268.02539 197.9043 A 19.496218 19.496218 0 0 1 267.82617 197.56641 A 19.496218 19.496218 0 0 1 267.41406 196.84766 A 19.496218 19.496218 0 0 1 267.06836 196.20508 A 19.496218 19.496218 0 0 1 266.89648 195.83594 A 19.496218 19.496218 0 0 1 266.55859 195.08008 A 19.496218 19.496218 0 0 1 266.26172 194.36719 A 19.496218 19.496218 0 0 1 265.90039 193.27734 A 19.496218 19.496218 0 0 1 265.77539 192.85938 A 19.496218 19.496218 0 0 1 265.60742 192.23828 A 19.496218 19.496218 0 0 1 265.42383 191.42383 A 19.496218 19.496218 0 0 1 265.33594 190.9707 A 19.496218 19.496218 0 0 1 265.22461 190.29883 A 19.496218 19.496218 0 0 1 265.12695 189.49023 A 19.496218 19.496218 0 0 1 265.08398 189.03906 A 19.496218 19.496218 0 0 1 265.08398 189.03711 A 19.496218 19.496218 0 0 1 265.02539 188.13281 A 19.496218 19.496218 0 0 1 265.02539 188.12891 A 19.496218 19.496218 0 0 1 265.02148 188.00977 A 19.496218 19.496218 0 0 1 265.0293 187.09766 A 19.496218 19.496218 0 0 1 265.0293 187.06641 A 19.496218 19.496218 0 0 1 265.03906 186.79492 A 19.496218 19.496218 0 0 1 265.04102 186.75781 A 19.496218 19.496218 0 0 1 265.08203 185.96289 A 19.496218 19.496218 0 0 1 265.17188 185.12305 A 19.496218 19.496218 0 0 1 265.21484 184.80469 A 19.496218 19.496218 0 0 1 265.33398 184.01758 A 19.496218 19.496218 0 0 1 265.49805 183.23828 A 19.496218 19.496218 0 0 1 265.59766 182.83008 A 19.496218 19.496218 0 0 1 265.77344 182.13477 A 19.496218 19.496218 0 0 1 266.01758 181.37109 A 19.496218 19.496218 0 0 1 266.19141 180.875 A 19.496218 19.496218 0 0 1 266.39453 180.31641 A 19.496218 19.496218 0 0 1 266.70703 179.58789 A 19.496218 19.496218 0 0 1 266.92969 179.10938 A 19.496218 19.496218 0 0 1 266.94531 179.07617 A 19.496218 19.496218 0 0 1 267.20117 178.54883 A 19.496218 19.496218 0 0 1 267.61914 177.79492 A 19.496218 19.496218 0 0 1 267.85938 177.39258 A 19.496218 19.496218 0 0 1 268.25391 176.74805 A 19.496218 19.496218 0 0 1 268.41602 176.50586 A 19.496218 19.496218 0 0 1 268.41992 176.50195 A 19.496218 19.496218 0 0 1 269.01562 175.69531 A 19.496218 19.496218 0 0 1 269.07812 175.61133 A 19.496218 19.496218 0 0 1 269.10742 175.57617 A 19.496218 19.496218 0 0 1 269.67969 174.86133 A 19.496218 19.496218 0 0 1 269.6875 174.85352 A 19.496218 19.496218 0 0 1 270.17773 174.31445 A 19.496218 19.496218 0 0 1 270.25781 174.22461 A 19.496218 19.496218 0 0 1 270.38281 174.08984 A 19.496218 19.496218 0 0 1 271.0332 173.43359 A 19.496218 19.496218 0 0 1 271.04297 173.42188 A 19.496218 19.496218 0 0 1 271.43945 173.0625 A 19.496218 19.496218 0 0 1 271.65234 172.87109 A 19.496218 19.496218 0 0 1 271.7207 172.80859 A 19.496218 19.496218 0 0 1 271.75977 172.77734 A 19.496218 19.496218 0 0 1 272.50195 172.16016 A 19.496218 19.496218 0 0 1 272.51758 172.14648 A 19.496218 19.496218 0 0 1 273.14062 171.68945 A 19.496218 19.496218 0 0 1 273.27148 171.59375 A 19.496218 19.496218 0 0 1 274.10156 171.03516 A 19.496218 19.496218 0 0 1 274.9082 170.55664 A 19.496218 19.496218 0 0 1 274.92773 170.54492 A 19.496218 19.496218 0 0 1 275.80078 170.07812 A 19.496218 19.496218 0 0 1 275.88672 170.03906 A 19.496218 19.496218 0 0 1 276.66602 169.67578 A 19.496218 19.496218 0 0 1 277.63477 169.27344 A 19.496218 19.496218 0 0 1 278.22656 169.06641 A 19.496218 19.496218 0 0 1 278.44141 168.99609 A 19.496218 19.496218 0 0 1 279.14648 168.78516 A 19.496218 19.496218 0 0 1 279.90039 168.58203 A 19.496218 19.496218 0 0 1 280.06836 168.54102 A 19.496218 19.496218 0 0 1 280.29492 168.49023 A 19.496218 19.496218 0 0 1 281.03516 168.3457 A 19.496218 19.496218 0 0 1 281.70703 168.23438 A 19.496218 19.496218 0 0 1 282.09766 168.18164 A 19.496218 19.496218 0 0 1 282.49609 168.13867 A 19.496218 19.496218 0 0 1 282.93555 168.09766 A 19.496218 19.496218 0 0 1 282.96875 168.09375 A 19.496218 19.496218 0 0 1 283.55078 168.05664 A 19.496218 19.496218 0 0 1 284.04102 168.03906 A 19.496218 19.496218 0 0 1 284.48633 168.03516 z M 68 191 L 63 196 L 63 197 L 68.992188 197 L 69.003906 224 L 75.003906 224 L 75 191 L 68 191 z M 95 191 C 88.905696 191 84 196.3517 84 203 L 84 211.99023 C 84 218.63854 88.905696 223.99219 95 223.99219 C 101.0943 223.99219 106.00195 218.63854 106.00195 211.99023 L 106.00195 203 C 106.00195 196.3517 101.0943 191 95 191 z M 116 191 L 111 196 L 111 197 L 116.99219 197 L 117.00391 224 L 123.00391 224 L 123 191 L 116 191 z M 95 196.09766 C 98.10762 196.09766 100.9043 198.8385 100.9043 203 L 100.9043 211.99023 C 100.9043 216.15167 98.106335 218.89453 95 218.89453 C 91.893555 218.89453 89.097656 216.15278 89.097656 211.99023 L 89.097656 203 C 89.097656 198.83739 91.892271 196.09766 95 196.09766 z M 156.50391 242.49609 L 156.50195 304.5 L 225 304.5 L 225 301.5 L 159 301.50391 L 159 242.49609 L 156.50391 242.49609 z M 182.99609 255.49609 L 182.99609 299.50195 L 196 299.50195 L 196 255.49609 L 182.99609 255.49609 z M 200.49805 267.99414 L 200.49805 299.50195 L 213.50195 299.50195 L 213.50195 267.99414 L 200.49805 267.99414 z M 165.49609 275.49609 L 165.49609 299.50195 L 178.5 299.50195 L 178.5 275.49609 L 165.49609 275.49609 z "
     id="path6628"
     inkscape:export-xdpi="96"
     inkscape:export-ydpi="96" />
</svg>
